{
  "accessors": [
    {
      "bufferView": 2,
      "componentType": 5126,
      "count": 11747,
      "max": [
        0.9953169822692871,
        -1.1585160493850708,
        0.5572299957275391
      ],
      "min": [
        -0.8062559962272644,
        -1.1794519424438477,
        -0.580161988735199
      ],
      "type": "VEC3"
    },
    {
      "bufferView": 2,
      "byteOffset": 140964,
      "componentType": 5126,
      "count": 11747,
      "max": [
        0.9973499774932861,
        0.9650814533233643,
        0.9710567593574524
      ],
      "min": [
        -0.9823240041732788,
        -0.9999998807907104,
        -0.990659236907959
      ],
      "type": "VEC3"
    },
    {
      "bufferView": 3,
      "componentType": 5126,
      "count": 11747,
      "max": [
        0.9971928000450134,
        0.9983919858932495,
        0.7414035201072693,
        -1.0
      ],
      "min": [
        -1.0,
        -0.997936487197876,
        -0.7007522583007813,
        -1.0
      ],
      "type": "VEC4"
    },
    {
      "bufferView": 1,
      "componentType": 5126,
      "count": 11747,
      "max": [
        0.9990220069885254,
        0.9833980202674866
      ],
      "min": [
        0.0009769999887794256,
        0.0009769999887794256
      ],
      "type": "VEC2"
    },
    {
      "bufferView": 0,
      "componentType": 5125,
      "count": 60000,
      "type": "SCALAR"
    }
  ],
  "asset": {
    "extras": {
      "author": "grafi (https://sketchfab.com/zdenkoroman)",
      "license": "CC-BY-4.0 (http://creativecommons.org/licenses/by/4.0/)",
      "source": "https://sketchfab.com/3d-models/asphalt-texture-3d-scan-ee52f7306e58449d9ec750d1b8b980f2",
      "title": "Asphalt Texture 3D scan"
    },
    "generator": "Sketchfab-12.68.0",
    "version": "2.0"
  },
  "bufferViews": [
    {
      "buffer": 0,
      "byteLength": 240000,
      "name": "floatBufferViews",
      "target": 34963
    },
    {
      "buffer": 0,
      "byteLength": 93976,
      "byteOffset": 240000,
      "byteStride": 8,
      "name": "floatBufferViews",
      "target": 34962
    },
    {
      "buffer": 0,
      "byteLength": 281928,
      "byteOffset": 333976,
      "byteStride": 12,
      "name": "floatBufferViews",
      "target": 34962
    },
    {
      "buffer": 0,
      "byteLength": 187952,
      "byteOffset": 615904,
      "byteStride": 16,
      "name": "floatBufferViews",
      "target": 34962
    }
  ],
  "buffers": [
    {
      "byteLength": 803856,
      "uri": "scene.bin"
    }
  ],
  "images": [
    {
      "uri": "textures/material_0_baseColor.png"
    },
    {
      "uri": "textures/material_0_normal.png"
    }
  ],
  "materials": [
    {
      "doubleSided": true,
      "name": "material_0",
      "normalTexture": {
        "index": 1
      },
      "pbrMetallicRoughness": {
        "baseColorTexture": {
          "index": 0
        },
        "metallicFactor": 0.0,
        "roughnessFactor": 0.6
      }
    }
  ],
  "meshes": [
    {
      "name": "Object_0",
      "primitives": [
        {
          "attributes": {
            "NORMAL": 1,
            "POSITION": 0,
            "TANGENT": 2,
            "TEXCOORD_0": 3
          },
          "indices": 4,
          "material": 0,
          "mode": 4
        }
      ]
    }
  ],
  "nodes": [
    {
      "children": [
        1
      ],
      "matrix": [
        1.0,
        1.6081226229577294e-16,
        -1.608122622957729e-16,
        0.0,
        1.6081226229577292e-16,
        -1.0,
        0.0,
        0.0,
        -1.6081226229577292e-16,
        0.0,
        -1.0,
        0.0,
        1.942890293094024e-16,
        -1.1804482936859133,
        1.157516002655029,
        1.0
      ],
      "name": "Sketchfab_model"
    },
    {
      "children": [
        2
      ],
      "name": "export_low_poly.obj.cleaner.materialmerger.gles"
    },
    {
      "mesh": 0,
      "name": "Object_2"
    }
  ],
  "samplers": [
    {
      "magFilter": 9729,
      "minFilter": 9987,
      "wrapS": 10497,
      "wrapT": 10497
    }
  ],
  "scene": 0,
  "scenes": [
    {
      "name": "Sketchfab_Scene",
      "nodes": [
        0
      ]
    }
  ],
  "textures": [
    {
      "sampler": 0,
      "source": 0
    },
    {
      "sampler": 0,
      "source": 1
    }
  ]
}
